<svg width="19" height="19" viewBox="0 0 19 19" fill="none" xmlns="http://www.w3.org/2000/svg">
<path d="M2.75 9.32324C2.75 6.75194 2.75 5.46629 3.31909 4.51683C3.65726 3.95261 4.12937 3.48051 4.69359 3.14233C5.64305 2.57324 6.9287 2.57324 9.5 2.57324V2.57324C12.0713 2.57324 13.3569 2.57324 14.3064 3.14233C14.8706 3.48051 15.3427 3.95261 15.6809 4.51683C16.25 5.46629 16.25 6.75194 16.25 9.32324V9.32324C16.25 11.8945 16.25 13.1802 15.6809 14.1297C15.3427 14.6939 14.8706 15.166 14.3064 15.5042C13.3569 16.0732 12.0713 16.0732 9.5 16.0732V16.0732C6.9287 16.0732 5.64305 16.0732 4.69359 15.5042C4.12937 15.166 3.65726 14.6939 3.31909 14.1297C2.75 13.1802 2.75 11.8945 2.75 9.32324V9.32324Z" stroke="#9A9A9A"/>
<path fill-rule="evenodd" clip-rule="evenodd" d="M14.2481 10.3686C14.1358 10.2619 14.0372 10.1764 13.9372 10.1061C13.0749 9.50022 11.9251 9.50022 11.0628 10.1061C10.8848 10.2312 10.7114 10.4047 10.4569 10.6593L10.4208 10.6953C10.1951 10.921 10.1406 10.9712 10.1074 10.9925C9.88301 11.1365 9.58513 11.0792 9.43029 10.8621C9.40736 10.83 9.37536 10.7631 9.24963 10.4698L9.20957 10.3763L9.20485 10.3653C9.05947 10.0261 8.94383 9.75622 8.84182 9.54451C8.73879 9.33068 8.63609 9.14665 8.50843 8.99099C7.74443 8.05941 6.42468 7.80525 5.36935 8.38645C5.19301 8.48357 5.02931 8.6163 4.85424 8.77657C4.82087 8.80712 4.78623 8.83948 4.75018 8.87369C4.75003 9.0173 4.75 9.16702 4.75 9.32326C4.75 9.67292 4.75014 9.98987 4.75147 10.2789L4.91097 10.1194C5.18234 9.84803 5.37437 9.65616 5.52947 9.51417C5.68473 9.37205 5.77944 9.30223 5.85176 9.2624C6.48496 8.91367 7.27681 9.06617 7.73521 9.62512C7.78757 9.68896 7.84957 9.78896 7.94094 9.97858C8.03221 10.168 8.13925 10.4175 8.29043 10.7702L8.33048 10.8637L8.35193 10.9138L8.35193 10.9138C8.44395 11.129 8.52122 11.3098 8.61625 11.4429C9.08077 12.094 9.97439 12.2661 10.6475 11.8341C10.7852 11.7457 10.924 11.6066 11.0894 11.441L11.1279 11.4024C11.4322 11.0982 11.5402 10.9928 11.6377 10.9243C12.1551 10.5608 12.8449 10.5608 13.3623 10.9243C13.4598 10.9928 13.5678 11.0982 13.8721 11.4024L14.2165 11.7469C14.237 11.3677 14.245 10.92 14.2481 10.3686Z" fill="#9A9A9A"/>
<circle cx="12.875" cy="5.94824" r="1.125" fill="#9A9A9A"/>
</svg>
